<svg height='100px' width='100px'  fill="#000000" xmlns="http://www.w3.org/2000/svg" xmlns:xlink="http://www.w3.org/1999/xlink" viewBox="0 0 24 24" version="1.1" x="0px" y="0px"><title>chevron-double-down</title><desc>Created with Sketch.</desc><g stroke="none" stroke-width="1" fill="none" fill-rule="evenodd"><rect x="0" y="0" width="24" height="24"></rect><path d="M11.9990556,16.5867309 L18.2928932,10.2928932 C18.6834175,9.90236893 19.3165825,9.90236893 19.7071068,10.2928932 C20.0976311,10.6834175 20.0976311,11.3165825 19.7071068,11.7071068 L12.7071068,18.7071068 C12.3169515,19.097262 11.6845153,19.0976847 11.2938389,18.7080512 L4.29383893,11.7267378 C3.90279304,11.3367358 3.90194679,10.7035714 4.29194878,10.3125255 C4.68195077,9.92147964 5.31511518,9.92063339 5.70616108,10.3106354 L11.9990556,16.5867309 Z M11.9990556,11.5867309 L18.2928932,5.29289322 C18.6834175,4.90236893 19.3165825,4.90236893 19.7071068,5.29289322 C20.0976311,5.68341751 20.0976311,6.31658249 19.7071068,6.70710678 L12.7071068,13.7071068 C12.3169515,14.097262 11.6845153,14.0976847 11.2938389,13.7080512 L4.29383893,6.72673783 C3.90279304,6.33673584 3.90194679,5.70357143 4.29194878,5.31252553 C4.68195077,4.92147964 5.31511518,4.92063339 5.70616108,5.31063538 L11.9990556,11.5867309 Z" fill="#000000" fill-rule="nonzero"></path></g></svg>