<svg height='100px' width='100px'  fill="#595959" xmlns="http://www.w3.org/2000/svg" viewBox="0 0 32 32" version="1.1" xml:space="preserve" fill-rule="evenodd" clip-rule="evenodd" stroke-miterlimit="1.414" x="0px" y="0px"><g stroke-linejoin="round" class="nc-icon-wrapper" fill="#595959"><path d="M12 29h1v2h6v-2h1v-2h-8v2z" fill-rule="nonzero"></path><path d="M16 7c-4.4 0-8 3.3-8 7.4 0 2.5 1.4 4.8 3.5 6.1V25h9v-4.5c2.1-1.3 3.5-3.6 3.5-6.1 0-4.1-3.6-7.4-8-7.4zm2.5 12.4V23h-5v-3.6c-.3-.3-3.5-1.6-3.5-5 0-3 2.7-5.4 6-5.4s6 2.4 6 5.4c0 3.4-3.2 4.7-3.5 5z" fill-rule="nonzero"></path><path d="M15 1h2v4h-2z"></path><path d="M26 12h4v2h-4z"></path><path d="M2 12h4v2H2z"></path><path d="M21.879 6.707l2.828-2.828 1.414 1.414-2.828 2.828z"></path><path d="M5.879 5.293l1.414-1.414 2.828 2.828-1.414 1.414z"></path></g></svg>