<svg xmlns="http://www.w3.org/2000/svg" viewBox="0 0 517.92 87.3"><defs><style>.cls-1{fill:#231f20;fill-rule:evenodd;}.cls-2{font-size:55.68px;fill:#c8eb00;font-family:IBMPlexSans-Bold, IBM Plex Sans;font-weight:700;letter-spacing:-0.04em;}.cls-3{letter-spacing:-0.05em;}.cls-4{letter-spacing:-0.04em;}</style></defs><g id="Layer_2" data-name="Layer 2"><g id="Foreground"><path class="cls-1" d="M94.28,49.12c-2.76-5-7.46-7-12.93-7-7.95,0-14.28,5.63-14.28,15.15,0,9.68,6,15.14,14.55,15.14a14.62,14.62,0,0,0,12.82-7.62l-6-3.08c-1.36,3.24-3.41,4.21-6,4.21-4.49,0-6.54-3.73-6.54-8.65s1.73-8.65,6.54-8.65a6.18,6.18,0,0,1,5.41,3.94Z"/><path class="cls-1" d="M109.75,48.58c4.81,0,6.87,3.73,6.87,8.33,0,5.24-2.06,9-6.87,9s-6.87-3.73-6.87-8.65S104.93,48.58,109.75,48.58Zm0-6.5c-9,0-15.31,5.47-15.31,15.15s6.33,15.14,15.31,15.14,15.3-5.46,15.3-15.14S118.73,42.08,109.75,42.08Z"/><path class="cls-1" d="M126.78,71.62h8.44V53.71c0-2.59,1.08-4.81,4.49-4.81,3.25,0,4.11,1.89,4.11,4.71v18h8.44V53.93c0-2.92,1.46-5,4.27-5,3.19,0,4.33,1.84,4.33,5.9V71.62h8.44v-22c0-6.6-6.06-7.58-8.87-7.58a12.35,12.35,0,0,0-9.25,3.84,8.93,8.93,0,0,0-7.63-3.84c-2.6,0-6.17.76-8.33,3.3V42.84h-8.44Z"/><path class="cls-1" d="M172,71.62h8.43V53.71c0-2.59,1.09-4.81,4.49-4.81S189,50.79,189,53.61v18h8.44V53.93c0-2.92,1.46-5,4.28-5,3.19,0,4.32,1.84,4.32,5.9V71.62h8.44v-22c0-6.6-6.06-7.58-8.87-7.58a12.36,12.36,0,0,0-9.25,3.84,8.92,8.92,0,0,0-7.63-3.84c-2.59,0-6.16.76-8.33,3.3V42.84H172Z"/><path class="cls-1" d="M231.54,48.58c4.82,0,6.87,3.73,6.87,8.33,0,5.24-2,9-6.87,9s-6.87-3.73-6.87-8.65S226.73,48.58,231.54,48.58Zm0-6.5c-9,0-15.3,5.47-15.3,15.15s6.32,15.14,15.3,15.14,15.31-5.46,15.31-15.14S240.52,42.08,231.54,42.08Z"/><path class="cls-1" d="M249.12,71.62h8.44V53.71c0-2.59,1.08-4.81,4.49-4.81,3.24,0,4.11,1.89,4.11,4.71v18h8.44V50.36c0-4.33-1.9-8.28-8.71-8.28-2.6,0-6.17.76-8.33,3.3V42.84h-8.44Z"/><path class="cls-1" d="M302.77,46.25a23.07,23.07,0,0,0-12.71-4.17c-5.84,0-12.17,2.82-12.17,10.07,0,10.22,17,6.65,17,11.14,0,2.59-3.19,2.92-4.6,2.92-3.84,0-6.49-1.57-9.08-4.06L276,66.7c4.22,3.89,7.79,5.67,14.06,5.67s13-2.7,13-10.27c0-10.77-17-6.71-17-11.63,0-1.46,1.51-2.22,3.62-2.22,2.65,0,6.27,1.08,7.95,3.08Z"/><path class="cls-1" d="M94.28,16c-2.76-5-7.46-7-12.93-7C73.4,9,67.07,14.6,67.07,24.12c0,9.69,6,15.15,14.55,15.15a14.63,14.63,0,0,0,12.82-7.63l-6-3.08c-1.36,3.25-3.41,4.22-6,4.22-4.49,0-6.54-3.73-6.54-8.66s1.73-8.65,6.54-8.65a6.17,6.17,0,0,1,5.41,4Z"/><path class="cls-1" d="M96.34,38.51h8.44V21.85c0-3.19,2-4.05,7-4.65l.92-.11,0-7.46a13.37,13.37,0,0,0-7.9,3V9.74H96.34Z"/><path class="cls-1" d="M141.39,25.85C141.33,17,137.76,9,127.27,9c-8.76,0-14.12,5.84-14.12,16,0,8.11,5.19,14.28,14.12,14.28,6.44,0,11-2.54,14-8L134.89,28c-2.43,3.46-3.89,5.08-7,5.08-2.7,0-6.22-1.73-6.27-7.25Zm-19.91-5.19a5.82,5.82,0,0,1,5.73-5.51A5.44,5.44,0,0,1,133,20.66Z"/><path class="cls-1" d="M160.74,26.5c0,4.39-2.49,6.6-5.79,6.6-2,0-3.94-1-3.94-3.24s1.94-3.14,4.05-3.73l5.68-1.63Zm8.12-9.19C168.8,10.82,163.88,9,156,9c-3.9,0-11.58.76-11.85,9h8.11c.44-2.86,1.73-3.84,4.44-3.84,2.27,0,4,.92,4,3.08v2.38l-3.08.44c-9.2,1.3-14.77,3.73-14.77,10.65,0,5.52,4.11,8.55,9.63,8.55,3,0,7.25-1.46,8.65-3.73h.11a11.92,11.92,0,0,0,.54,3h7.79a17,17,0,0,1-.75-6Z"/><path class="cls-1" d="M188.7,10.28h-5V2h-8.44v8.33h-4.11v5.19h4.11V30.62c0,4.16,1,8.65,8.22,8.65,1.84,0,4.33-.22,5.41-.33V32.29a23.34,23.34,0,0,1-2.54.16c-1.52,0-2.65-.59-2.65-2.86V15.47h5Z"/><path class="cls-1" d="M191.88,9.74V38.51h8.43V9.74Zm8.43-3.25V0h-8.43V6.49Z"/><polygon class="cls-1" points="211.67 38.51 220.16 38.51 230.01 9.74 221.03 9.74 216.05 30.07 215.94 30.07 210.97 9.74 201.93 9.74 211.67 38.51"/><path class="cls-1" d="M257.26,25.85C257.2,17,253.63,9,243.14,9,234.38,9,229,14.82,229,25c0,8.11,5.19,14.28,14.12,14.28,6.44,0,11-2.54,13.95-8L250.77,28c-2.44,3.46-3.9,5.08-7,5.08-2.7,0-6.22-1.73-6.27-7.25Zm-19.91-5.19a5.82,5.82,0,0,1,5.73-5.51,5.44,5.44,0,0,1,5.74,5.51Z"/><path class="cls-1" d="M31.6,8.5A30.46,30.46,0,0,0,9.38,17.7,31.89,31.89,0,0,0,0,40.19,31.11,31.11,0,0,0,9.29,62.5,31.35,31.35,0,0,0,31.6,71.87a32.14,32.14,0,0,0,22.66-9.46,30.49,30.49,0,0,0,9-22.22A31.41,31.41,0,0,0,31.6,8.5Zm.09,5.73a25.78,25.78,0,0,1,25.87,26,24.75,24.75,0,0,1-7.38,18.14,26.31,26.31,0,0,1-18.49,7.73,25.55,25.55,0,0,1-18.23-7.64A25.8,25.8,0,0,1,5.73,40.19a26.19,26.19,0,0,1,7.73-18.41A24.88,24.88,0,0,1,31.69,14.23Z"/><path class="cls-1" d="M31.28,34.92c-1.79-3.26-4.84-4.56-8.39-4.56-5.16,0-9.27,3.65-9.27,9.83S17.49,50,23.07,50a9.5,9.5,0,0,0,8.32-4.95l-3.94-2a3.83,3.83,0,0,1-3.89,2.74c-2.92,0-4.25-2.42-4.25-5.61s1.12-5.62,4.25-5.62a4,4,0,0,1,3.51,2.56Z"/><path class="cls-1" d="M49.56,34.92c-1.79-3.26-4.84-4.56-8.39-4.56C36,30.36,31.9,34,31.9,40.19S35.77,50,41.35,50a9.5,9.5,0,0,0,8.32-4.95l-3.93-2a3.85,3.85,0,0,1-3.9,2.74c-2.91,0-4.25-2.42-4.25-5.61s1.12-5.62,4.25-5.62a4,4,0,0,1,3.51,2.56Z"/><text class="cls-2" transform="translate(304 71.98)">sl<tspan class="cls-3" x="40.48" y="0">ov</tspan><tspan class="cls-4" x="96.49" y="0">enija</tspan></text></g></g></svg>