<svg height='100px' width='100px'  fill="#000000" xmlns="http://www.w3.org/2000/svg" xmlns:xlink="http://www.w3.org/1999/xlink" version="1.1" x="0px" y="0px" viewBox="0 0 100 100" enable-background="new 0 0 100 100" xml:space="preserve"><path d="M19.58,45.26c-0.829,0-1.5-0.672-1.5-1.5c0-6.875,2.667-13.328,7.509-18.17c4.842-4.843,11.295-7.51,18.17-7.51  c0.829,0,1.5,0.672,1.5,1.5s-0.671,1.5-1.5,1.5c-6.074,0-11.773,2.354-16.049,6.631c-4.275,4.275-6.63,9.976-6.63,16.049  C21.08,44.588,20.409,45.26,19.58,45.26z"></path><path d="M93.21,84.55c2.39,2.39,2.39,6.27,0,8.66s-6.27,2.39-8.66,0L71.3,79.95c-0.93,0.37-1.91,0.56-2.9,0.56  c-1.96,0-3.92-0.74-5.41-2.23c-0.18-0.18-0.36-0.38-0.52-0.58c-14.73,8.13-33.63,5.96-46.12-6.54c-15.13-15.13-15.13-39.67,0-54.81  c15.14-15.13,39.68-15.13,54.81,0c12.5,12.49,14.67,31.39,6.54,46.12c0.2,0.16,0.4,0.34,0.58,0.52c2.24,2.24,2.79,5.54,1.67,8.31  L93.21,84.55z M65.11,65.11c11.77-11.78,11.77-30.93,0-42.7s-30.93-11.77-42.7,0s-11.77,30.92,0,42.7  C34.18,76.88,53.34,76.88,65.11,65.11z"></path></svg>